<?xml version="1.0" standalone="no"?><!DOCTYPE svg PUBLIC "-//W3C//DTD SVG 1.1//EN" "http://www.w3.org/Graphics/SVG/1.1/DTD/svg11.dtd"><svg t="1705977359651" class="icon" viewBox="0 0 1024 1024" version="1.1" xmlns="http://www.w3.org/2000/svg" p-id="11867" xmlns:xlink="http://www.w3.org/1999/xlink" width="200" height="200"><path d="M469.333333 234.666667V106.666667h85.333334v128h-85.333334z m-161.834666-94.165334l85.333333 85.333334-60.330667 60.330666-85.333333-85.333333 60.330667-60.330667z m469.333333 60.330667l-85.333333 85.333333-60.330667-60.330666 85.333333-85.333334 60.330667 60.330667z m-548.693333 182.826667A85.333333 85.333333 0 0 1 301.845333 341.333333H722.133333a85.333333 85.333333 0 0 1 73.706667 42.346667l131.2 224.853333A85.333333 85.333333 0 0 1 938.666667 651.541333V832a85.333333 85.333333 0 0 1-85.333334 85.333333H170.666667a85.333333 85.333333 0 0 1-85.333334-85.333333v-180.48a85.333333 85.333333 0 0 1 11.626667-42.986667l131.178667-224.853333zM722.133333 426.666667H301.866667l-99.562667 170.666666h255.146667l9.6 28.8a58.602667 58.602667 0 0 0 2.133333 4.778667c1.92 3.84 4.906667 8.896 8.96 13.781333 7.829333 9.408 18.133333 16.64 33.877333 16.64 15.744 0 26.026667-7.232 33.898667-16.64a72.469333 72.469333 0 0 0 11.050667-18.453333l0.021333-0.106667 9.6-28.8h255.146667l-99.562667-170.666666zM853.333333 682.666667H623.509333a154.730667 154.730667 0 0 1-12.074666 16.64C592.64 721.92 560.256 746.666667 512 746.666667c-48.256 0-80.64-24.768-99.434667-47.36a154.730667 154.730667 0 0 1-12.074666-16.64H170.666667v149.333333h682.666666v-149.333333z" p-id="11868" fill="#ffffff"></path></svg>