<?xml version="1.0" standalone="no"?><!DOCTYPE svg PUBLIC "-//W3C//DTD SVG 1.1//EN" "http://www.w3.org/Graphics/SVG/1.1/DTD/svg11.dtd"><svg t="1705973805892" class="icon" viewBox="0 0 1044 1024" version="1.1" xmlns="http://www.w3.org/2000/svg" p-id="4216" xmlns:xlink="http://www.w3.org/1999/xlink" width="203.90625" height="200"><path d="M587.32864 162.688L928.00064 332.736a21.632 21.632 0 0 1 0.448 38.4L486.01664 604.8a86.464 86.464 0 0 1-79.04 0.896L129.28064 467.136a52.352 52.352 0 0 0-71.68 48.64 79.36 79.36 0 0 0 43.84 70.976l278.4 139.2A93.696 93.696 0 0 1 512.00064 724.16l346.752-183.04a93.696 93.696 0 1 1 27.136 50.88l-346.816 183.168a93.696 93.696 0 1 1-184.896 2.048L71.68064 635.968A129.728 129.728 0 0 1 0.00064 520v-27.264a100.864 100.864 0 0 1 53.824-89.6l454.464-239.616a86.464 86.464 0 0 1 79.04-0.832z m-140.8 664.64a36.032 36.032 0 1 0-36.032-36.032 36.032 36.032 0 0 0 36.288 36.032z m540.608-302.592a36.032 36.032 0 1 1-36.032-36.032 36.032 36.032 0 0 1 36.032 36.032z" fill="#FFFFFF" p-id="4217"></path></svg>