<?xml version="1.0" standalone="no"?><!DOCTYPE svg PUBLIC "-//W3C//DTD SVG 1.1//EN" "http://www.w3.org/Graphics/SVG/1.1/DTD/svg11.dtd"><svg t="1705974376717" class="icon" viewBox="0 0 1024 1024" version="1.1" xmlns="http://www.w3.org/2000/svg" p-id="6008" xmlns:xlink="http://www.w3.org/1999/xlink" width="200" height="200"><path d="M673.5 143.5c54.7-2.6 107.8 18.7 145.4 58.5 33-5.3 64.9-16.2 94.2-32.2l22.9-12.7c-11.1 34.3-31.8 64.7-59.7 87.5-6.1 5.7-12.9 10.6-20.2 14.5v0.3c36-3.8 71.2-13.4 104.1-28.5v0.5c-16.8 27.3-37.9 51.8-62.4 72.5-9.6 7.6-19.1 15.3-28.7 23.2 1.6 40.1-1.3 80.2-8.5 119.7C814.6 656 693 798.1 500.3 859c-84.6 24.7-173.9 28.4-260.2 10.8-37-8.9-73.1-20.9-108.1-35.9-17.9-7.9-35.3-16.9-52-27.2-5.3-3.4-10.8-6.6-16.1-10 19.5 2.7 39.1 3.5 58.8 2.4 18.1-3.2 35.8-2.4 52.5-6.1 38.7-7.5 76-21.1 110.4-40.3 18.2-8.4 34.9-19.5 49.8-33-18.7 0-37.2-3.4-54.7-10-55.5-19.1-98.8-63.3-116.7-119.2 18 1.8 69.9 6.6 82.1-3.7-21.8-3.1-42.4-11.5-60.1-24.5-55.6-33.6-88.7-94.6-86.6-159.5 6.3 2.9 12.5 6.1 18.8 9 12.4 5 25.4 8.6 38.6 10.8 8.1 2.8 16.7 3.6 25.2 2.4h-0.9c-9.3-10.8-24.4-18.2-33.6-29.8C107.3 348.6 92 285.8 106 226c4.6-16.9 11.3-33.2 19.7-48.5 0.3 0.3 0.6 0.3 0.9 0.5 4.8 7.1 10.3 13.7 16.6 19.5 16.2 19.7 34.5 37.5 54.7 53 65.2 53.9 142.2 91.6 224.8 110.2 27 6.9 54.7 10.5 82.5 10.8-7.1-28.8-6.8-58.9 0.9-87.5 13.3-55.6 51.8-101.9 104.1-125 13.2-5.6 26.8-9.9 40.8-12.9 7.6-0.8 15-1.6 22.5-2.6z m0 0" fill="#FFFFFF" p-id="6009"></path></svg>